<mxfile host="app.diagrams.net" modified="2021-08-09T12:12:53.074Z" agent="5.0 (Windows NT 10.0; Win64; x64) AppleWebKit/537.36 (KHTML, like Gecko) Chrome/92.0.4515.131 Safari/537.36" etag="IZ8mXuZr8VBkSbhigmTp" version="14.9.4" type="github">
  <diagram id="JLsZFxgrUHyaw2HbvbZS" name="Page-1">
    <mxGraphModel dx="1422" dy="794" grid="0" gridSize="10" guides="1" tooltips="1" connect="1" arrows="1" fold="1" page="1" pageScale="1" pageWidth="827" pageHeight="1169" math="0" shadow="0">
      <root>
        <mxCell id="0" />
        <mxCell id="1" parent="0" />
        <mxCell id="XCveCxQ07WaRdxRr44Px-1" value="" style="rounded=0;whiteSpace=wrap;html=1;" vertex="1" parent="1">
          <mxGeometry x="150" y="160" width="480" height="480" as="geometry" />
        </mxCell>
        <mxCell id="XCveCxQ07WaRdxRr44Px-2" value="" style="rounded=0;whiteSpace=wrap;html=1;" vertex="1" parent="1">
          <mxGeometry x="414" y="250" width="120" height="30" as="geometry" />
        </mxCell>
        <mxCell id="XCveCxQ07WaRdxRr44Px-3" value="" style="rounded=0;whiteSpace=wrap;html=1;" vertex="1" parent="1">
          <mxGeometry x="414" y="310" width="120" height="30" as="geometry" />
        </mxCell>
        <mxCell id="XCveCxQ07WaRdxRr44Px-4" value="" style="rounded=0;whiteSpace=wrap;html=1;" vertex="1" parent="1">
          <mxGeometry x="414" y="370" width="120" height="30" as="geometry" />
        </mxCell>
        <mxCell id="XCveCxQ07WaRdxRr44Px-5" value="" style="rounded=0;whiteSpace=wrap;html=1;" vertex="1" parent="1">
          <mxGeometry x="414" y="430" width="120" height="30" as="geometry" />
        </mxCell>
        <mxCell id="XCveCxQ07WaRdxRr44Px-6" value="" style="rounded=0;whiteSpace=wrap;html=1;" vertex="1" parent="1">
          <mxGeometry x="414" y="490" width="120" height="30" as="geometry" />
        </mxCell>
        <mxCell id="XCveCxQ07WaRdxRr44Px-7" value="Brugernavn:" style="text;html=1;strokeColor=none;fillColor=none;align=center;verticalAlign=middle;whiteSpace=wrap;rounded=0;" vertex="1" parent="1">
          <mxGeometry x="250" y="255" width="80" height="20" as="geometry" />
        </mxCell>
        <mxCell id="XCveCxQ07WaRdxRr44Px-8" value="Password:" style="text;html=1;strokeColor=none;fillColor=none;align=center;verticalAlign=middle;whiteSpace=wrap;rounded=0;" vertex="1" parent="1">
          <mxGeometry x="250" y="315" width="80" height="20" as="geometry" />
        </mxCell>
        <mxCell id="XCveCxQ07WaRdxRr44Px-9" value="Gentag password:" style="text;html=1;strokeColor=none;fillColor=none;align=center;verticalAlign=middle;whiteSpace=wrap;rounded=0;" vertex="1" parent="1">
          <mxGeometry x="250" y="375" width="100" height="20" as="geometry" />
        </mxCell>
        <mxCell id="XCveCxQ07WaRdxRr44Px-10" value="Emailadresse:" style="text;html=1;strokeColor=none;fillColor=none;align=center;verticalAlign=middle;whiteSpace=wrap;rounded=0;" vertex="1" parent="1">
          <mxGeometry x="240" y="430" width="100" height="20" as="geometry" />
        </mxCell>
        <mxCell id="XCveCxQ07WaRdxRr44Px-11" value="FÃ¸dselsdato" style="text;html=1;strokeColor=none;fillColor=none;align=center;verticalAlign=middle;whiteSpace=wrap;rounded=0;" vertex="1" parent="1">
          <mxGeometry x="240" y="495" width="100" height="20" as="geometry" />
        </mxCell>
        <mxCell id="XCveCxQ07WaRdxRr44Px-12" value="Opret bruger!" style="rounded=1;whiteSpace=wrap;html=1;" vertex="1" parent="1">
          <mxGeometry x="414" y="549.5" width="120" height="35" as="geometry" />
        </mxCell>
        <mxCell id="XCveCxQ07WaRdxRr44Px-13" value="Fortryd" style="rounded=1;whiteSpace=wrap;html=1;" vertex="1" parent="1">
          <mxGeometry x="240" y="550" width="120" height="35" as="geometry" />
        </mxCell>
      </root>
    </mxGraphModel>
  </diagram>
</mxfile>
